<?xml version="1.0" encoding="UTF-8"?>
<svg xmlns="http://www.w3.org/2000/svg" xmlns:xlink="http://www.w3.org/1999/xlink" width="200px" height="173px" viewBox="0 0 199 173" version="1.1">
<g id="surface1">
<path style=" stroke:none;fill-rule:evenodd;fill:rgb(100%,47.058824%,0%);fill-opacity:1;" d="M 127.992188 107.988281 C 127.992188 107.988281 117.429688 108.378906 106.789062 107.886719 L 107.050781 106.890625 C 107.269531 104.585938 107.339844 102.292969 107.265625 100.015625 L 116.667969 75.03125 C 124.699219 46.949219 87.644531 9.953125 87.644531 9.953125 C 82.246094 19.730469 80.835938 32.941406 81.558594 46.777344 C 56.175781 18.757812 21.152344 0 21.152344 0 C 17.472656 29.65625 60.363281 85.132812 81.363281 110.277344 C 81.363281 110.277344 84.875 113.457031 77.523438 116.128906 L 66.199219 119.671875 C 66.199219 119.671875 6.351562 138.933594 1.820312 144.679688 C 1.820312 144.679688 -3.035156 147.714844 3.109375 153.796875 C 3.109375 153.796875 12.820312 166.976562 15.410156 169.679688 C 15.410156 169.679688 20.90625 175.757812 25.4375 171.367188 C 25.4375 171.367188 64.257812 135.210938 75.917969 129.46875 L 83.703125 129.238281 C 85.539062 129.875 125.816406 132.421875 161.738281 107.683594 C 161.738281 107.683594 167.828125 102.03125 177.628906 96.613281 L 179.929688 95.28125 L 180.375 95.0625 C 183.382812 93.058594 189.683594 93.597656 192.355469 93.984375 C 195.023438 94.371094 197.691406 94.269531 197.691406 94.269531 C 199.40625 94.464844 198.453125 93.054688 198.453125 93.054688 C 197.027344 91.734375 192.335938 90.039062 188.761719 88.878906 L 188.234375 88.519531 C 187.203125 87.71875 185 85.472656 185.257812 82.480469 C 185.855469 75.652344 178.128906 73.785156 172.179688 72.546875 C 166.234375 71.300781 162.382812 70.9375 162.382812 70.9375 L 161.074219 70.582031 C 160.253906 70.425781 159.425781 70.300781 158.59375 70.207031 L 155.910156 69.5625 C 155.910156 69.5625 135.707031 65.839844 138.777344 45.839844 C 136.105469 52.730469 142.835938 67.894531 144.210938 70.695312 C 143.445312 70.910156 133.007812 73.808594 131.890625 74.261719 C 131.890625 74.261719 161.675781 66.945312 171.28125 78.492188 C 171.28125 78.492188 178.292969 83.460938 168.214844 94.203125 C 168.214844 94.203125 156.257812 109.183594 127.992188 107.988281 Z M 144.253906 70.683594 C 144.550781 71.324219 144.492188 71.269531 144.210938 70.695312 Z M 144.253906 70.683594 "/>
</g>
</svg>
